<?xml version="1.0" encoding="UTF-8"?>
<svg id="Layer_1" data-name="Layer 1" xmlns="http://www.w3.org/2000/svg" viewBox="0 0 146.76 146.5">
  <g id="nbApMG.tif">
    <path d="M77.38,41.6c8.3-1.31,12.01,5.16,16.07,10.74,.98,1.35,.51,3.71,.86,5.57,.84,4.5,1.61,9.02-.33,13.4-1.33,3.01-2.85,5.96-4.48,8.82-1.41,2.48-2.75,5.17-4.76,7.1-4.07,3.89-9.23,5.7-14.77,6.76-6.02,1.15-10.9-.66-16.2-3.51-4.96-2.66-7.16-6.98-10.06-11.04-.37-.52-.74-1.26-.66-1.84,.63-4.62,.45-9.43,3.1-13.61,.32-.5,.34-1.23,.39-1.87,.06-.91-.09-1.84,.05-2.74,.54-3.55,9.35-12.14,12.93-13.03,2.14-.54,4.22-1.51,6.2-2.53,3.58-1.85,7.36-2.47,11.67-2.24Zm-10.49,40.39c.04,.17,.08,.34,.12,.52,2.77-.74,5.59-1.33,8.28-2.28,1.06-.38,2.17-1.4,2.68-2.42,1.5-2.99,2.67-6.15,4.04-9.21,2.28-5.11-.75-13-5.66-15.54-3.17-1.64-6-.8-9.21-.32-4.98,.74-6.58,4.82-8.89,7.93-1.72,2.32-2.34,5.68-2.82,8.67-1.44,9.06,1.43,11.8,8.97,12.64,.82,.09,1.66,.01,2.49,.01Z"/>
  </g>
</svg>