<?xml version="1.0" encoding="UTF-8"?>
<svg id="Layer_1" data-name="Layer 1" xmlns="http://www.w3.org/2000/svg" viewBox="0 0 146.76 135.97">
  <g id="nbApMG.tif">
    <path d="M84.91,59.38c.15,1.6,.15,3.23,.49,4.78,.94,4.24,1.19,8.43-1.17,12.26-2.35,3.8-4.48,7.94-7.62,11-2.86,2.78-6.92,4.32-10.49,6.36-.63,.36-1.69,.25-2.05,.73-1.99,2.66-4.8,2.28-7.51,2.2-5.06-.14-9.87-1.28-14.21-3.96-3.39-2.09-5.28-4.88-6.21-9.04-.93-4.16-1.01-8.12-.67-12.22,.05-.57-.03-1.25,.25-1.7,2.91-4.73,6.78-8.53,11.24-11.82,5.28-3.89,12.21-3.45,17.65-7.07,2.79-1.86,6.43-1.65,9.36-.02,4.16,2.31,8,5.18,11.98,7.81-.34,.23-.68,.46-1.02,.7Zm-11.2,8.35c-.14-.97,.04-2.2-.49-2.86-1.06-1.32-2.43-2.43-3.84-3.39-.35-.24-1.31,.4-1.99,.62-1.24,.41-2.48,1.18-3.71,1.16-4.35-.06-8.12,1.46-11.68,3.7-3.12,1.96-4.72,4.93-4.88,8.52-.13,2.85,.13,6.15,2.59,7.7,2.03,1.28,5,1.64,7.51,1.51,7.92-.43,15.99-9.01,16.5-16.96Z"/>
  </g>
</svg>