<?xml version="1.0" encoding="UTF-8"?>
<svg id="Layer_1" data-name="Layer 1" xmlns="http://www.w3.org/2000/svg" viewBox="0 0 146.76 128.78">
  <g id="nbApMG.tif">
    <path d="M64.65,86.08c-1.21,.37-2.41,.81-3.64,1.08-.78,.17-1.71,.33-2.4,.06-7.32-2.93-13.24-7.3-15.23-15.48-.19-.8-.48-1.72-.26-2.44,1.38-4.47,2.66-9,4.45-13.31,.91-2.19,2.5-4.4,4.38-5.79,1.61-1.19,3.12-2.41,4.65-3.72,4.69-4.05,9.99-6.43,16.38-4.24,1.88,.64,3.84,1.1,5.66,1.87,5.25,2.22,7.36,6.45,8.34,11.93,1.06,5.91-.67,11.15-2.57,16.4-.62,1.71-2.55,2.93-3.84,4.41-.74,.85-1.4,1.75-2.08,2.65-.24,.33-.33,.82-.63,1.05-2.09,1.57-4.06,3.4-6.37,4.53-2.02,.99-4.43,1.16-6.66,1.7l-.19-.7Zm3.48-12.79c.91-1.57,1.42-3,2.38-4,2.84-2.99,4-6.66,4.4-10.57,.11-1.07-.67-2.78-1.57-3.3-2.61-1.52-5.42-2.79-8.28-3.79-3.21-1.12-4.42-.47-6.54,2.31-3.67,4.81-5.01,10.13-3.87,16.09,.56,2.93,4.16,5.62,7.08,5,2.31-.49,4.58-1.23,6.41-1.73Z"/>
  </g>
</svg>