<?xml version="1.0" encoding="UTF-8"?>
<svg id="Layer_1" data-name="Layer 1" xmlns="http://www.w3.org/2000/svg" viewBox="0 0 138.13 130.94">
  <g id="nbApMG.tif">
    <path d="M50.97,78.59c2.89-.6,5.77-1.19,8.66-1.79-.02,.16-.04,.32-.06,.47,1.34-1.17,2.68-2.34,4.02-3.51,1.07-.94,2.38-6.44,1.91-7.85-.95-2.86-1.5-5.27-5.66-5.98-4.39-.75-8.45-3.57-12.55-5.69-1.12-.58-1.76-2.01-2.74-2.91-1.81-1.67-.41-2.7,.87-3.07,3.79-1.09,7.67-2.5,11.53-2.54,2.63-.03,5.3,1.98,7.93,3.13,.75,.33,1.37,1,2.14,1.27,7,2.42,9.97,8.19,11.11,14.71,.81,4.67,0,9.57-2.92,13.73-.14,.2-.34,.51-.52,.51-2.7,.08-3.11,2.62-4.43,4.14-8.17,9.39-22.32,9.32-30.54,2.51-4.37-3.62-5.76-7.7-6.19-12.81-.33-3.86,.34-7.45,1.9-10.96,1.55-3.48,4.78-5.31,9.27-4.56,1.79,.3,3.66,1.14,5.1,2.26,2.55,1.97,1.9,4.73-1.09,5.92-.96,.38-2.03,.85-2.68,1.6-2.48,2.87-.9,7.66,2.78,9.06,.88,.33,1.58,1.11,2.37,1.69-.06,.22-.13,.45-.19,.67Z"/>
  </g>
</svg>