<?xml version="1.0" encoding="UTF-8"?>
<svg id="Layer_1" data-name="Layer 1" xmlns="http://www.w3.org/2000/svg" viewBox="0 0 146.76 133.02">
  <g id="nbApMG.tif">
    <path d="M35.93,50.98c-.08-.32-.67-1.31-.39-1.76,1.29-2.09,.87-3.72-1.35-5.12,.9-.8,1.41-1.6,2.1-1.8,3.85-1.15,7.7-2.35,11.63-3.15,6.14-1.25,12.23,.17,18.25,1.14,2.84,.45,5.47,2.16,8.23,3.23,.77,.3,2.02,.12,2.38,.63,2.37,3.37,6.3,5.24,6.88,10.39,.96,8.5-2.33,14.79-8.08,20.05-3.59,3.29-7.52,6.19-12.55,7.74-4.22,1.3-8.17,3.61-12.7,3.97-4.69,.37-9.18,.62-13.67-2.15-3.06-1.89-5.23-3.38-5.88-7.2-.25-1.45-1.78-3-1.94-4.85-.19-2.18-.46-4.35-.45-6.53,0-1.9,.33-3.79,.59-5.68,.08-.62,.35-1.23,.65-1.79,.61-1.14,1.13-2.4,1.99-3.33,1.3-1.39,2.86-2.54,4.31-3.78Zm1.41,14.53c-.15,6.27,1.06,8.81,4.41,9.6,2.3,.54,4.5,1.65,7.19,.88,1.61-.46,3.02-.91,4.52-1.74,4.35-2.4,8.94-4.38,13.42-6.55,.2-.1,.36-.33,.48-.54,.96-1.76,1.83-3.59,2.88-5.3,2.14-3.45,1.74-5.33-1.87-7.28-2.77-1.5-5.55-3.02-8.48-4.16-2.27-.89-4.75-1.57-7.17-1.68-2.7-.12-5.44,.46-8.15,.85-.57,.08-1.23,.51-1.58,.98-3.63,4.85-4.99,10.51-5.66,14.93Z"/>
  </g>
</svg>