<?xml version="1.0" encoding="UTF-8"?>
<svg id="Layer_1" data-name="Layer 1" xmlns="http://www.w3.org/2000/svg" viewBox="0 0 141.01 142.83">
  <g id="nbApMG.tif">
    <path d="M75.68,52.62c2.23-1.64,4.88-3.58,8.11-5.95,.66-3.74,6.47-7.43,10.62-5.88-.03-.35-.06-.7-.09-1.06,.32-.02,.52-.1,.63-.03,3.25,2,3.77,4.19,1.33,7.12-3.4,4.08-7.07,7.95-10.53,11.99-1.78,2.07-3.4,4.29-4.99,6.51-.66,.92-.69,1.67,.47,2.68,4.26,3.73,5.71,17.73,2.47,21.92-1.57,2.03-2.74,2.3-4.06,.15-2.36-3.86-4.2-8.03-6.31-12.05-.66-1.26-1.49-2.43-2.21-3.6-4.87,5.35-9.21,10.25-13.69,15.01-1.53,1.62-3.32,3.02-5.14,4.32-2.41,1.72-4.7,1.56-6.75-.49-.51-.51-.47-1.64-.53-2.5-.05-.63,.15-1.27,.24-1.91l-1.59,.88c-.16-.07-.31-.14-.47-.21,1.02-1.94,1.72-4.15,3.12-5.77,4.67-5.4,9.63-10.56,14.4-15.88,1.71-1.9,3.28-3.95,4.76-6.03,.38-.54,.43-1.55,.22-2.23-.68-2.19-1.47-4.36-2.36-6.48-.63-1.52-1.42-2.98-2.26-4.39-1.35-2.26-.89-5.04,1.3-6.9,2.04-1.73,3.98-.66,5.29,.8,2.78,3.09,5.23,6.48,8,9.98Z"/>
  </g>
</svg>