<?xml version="1.0" encoding="UTF-8"?>
<svg id="Layer_1" data-name="Layer 1" xmlns="http://www.w3.org/2000/svg" viewBox="0 0 141.01 135.97">
  <g id="nbApMG.tif">
    <path d="M70.81,74.41h0c.74,.32,1.36,.59,2.37,1.03-.19-1.35-3.97-.86-4.08-1.67-1.34,.6,1.14-.51,0,0l-.62-.91c-1.74,1.77,7.18-7.15,10.92-10.56,1.32-1.21,3.05-3.02,4.99-1.33,1.88,1.64,.23,3.52-.72,4.87-3.15,4.5-6.3,9.06-9.92,13.17-3,3.4-3.43,6.57-1.55,10.59,.98,2.1,1.13,4.59,1.68,6.9,.15,.63,.42,1.24,.62,1.86,.66,2.03,1.54,4.02,1.92,6.1,.31,1.73-2.46,4.03-4.23,3.63-3.13-.7-5.68-2.1-6.63-5.59-.78-2.84-1.94-5.57-3.09-8.77-1.07,.82-2.32,1.49-3.18,2.49-4.46,5.23-8.87,10.51-13.19,15.86-1.31,1.62-6,3.08-7.47,2.04-2.1-1.5-2.1-4.56,.02-7.27-1.71-1.04-.87-2.28-.06-3.26,3.14-3.76,6.35-7.45,9.58-11.13,2.47-2.81,5.12-5.47,7.49-8.35,2.03-2.47,1.28-2.88-.19-5.74-2.33-4.52-3.98-9.44-5.52-14.31-.59-1.87,1.27-2.83,3.34-1.71,4.04,2.19,7.3,5.28,9.27,9.45,.91,1.92,1.66,3.19,4.17,2.84,.63-.09,1.33,.27,2.09,.73,.81,.48,1.84-.02,1.99-.94Z"/>
  </g>
</svg>