<?xml version="1.0" encoding="UTF-8"?>
<svg id="Layer_1" data-name="Layer 1" xmlns="http://www.w3.org/2000/svg" viewBox="0 0 133.81 142.83">
  <g id="nbApMG.tif">
    <path d="M58.83,70.52c-2.48-4.29-5.22-8.91-7.83-13.62-1.08-1.95-2.08-4-2.68-6.13-.62-2.18,.39-3.99,2.5-5.43,.23,.71,.39,1.2,.57,1.75,.43-.5,.85-.97,1.69-1.94,2.14,2.67,4.18,5.12,6.12,7.65,2.28,2.97,4.48,6,6.87,9.21,4.88-3.75,8.5-8.53,14.51-10.12,.81-3.28,7.19-6.84,10.69-5.55,.61,.23,.99,1.26,1.31,2,.13,.29-.13,.81-.32,1.17-3.93,7.38-7.39,15.12-14.89,19.84-2.11,1.33-1.93,3.18-.84,4.96,2.55,4.18,4.97,8.48,7.93,12.35,2.44,3.18,1.66,5.94,.58,8.41-1.12,.37-1.94,.39-2.21,.78-1.18,1.69-2.09,1-3.69,.34-3.63-1.49-4.76-5.35-7.77-7.35-.63-.42-.64-1.68-1.14-2.41-1.28-1.87-2.68-3.66-4.16-5.65-3.91,3.74-7.37,7.2-11,10.48-2.21,2-4.56,3.88-7.05,5.52-2.25,1.48-4.72,1.07-5.85-.51-1.56-2.19-1.21-4.62,.93-6.56,.3-.28,.69-.56,.82-.92,1.68-4.73,5.55-7.79,8.7-11.39,2.03-2.31,4.12-4.56,6.21-6.86Z"/>
  </g>
</svg>