<?xml version="1.0" encoding="UTF-8"?>
<svg id="Layer_1" data-name="Layer 1" xmlns="http://www.w3.org/2000/svg" viewBox="0 0 146.76 133.02">
  <g id="nbApMG.tif">
    <path d="M78.38,54.52c-1.09-4.45,3.02-4.75,4.74-6.81,.25-.3,.8-.4,.99-.72,2.45-4.13,4.23-4.58,8.24-2.01,.62,.4,1.22,.84,2.13,1.47-2.16,3.01-4.4,5.86-6.32,8.91-1.27,2-2.31,4.22-3,6.48-.28,.91,.33,2.63,1.12,3.24,3.53,2.74,4.69,6.98,7,10.47,1.68,2.53-.48,6.9-3.59,8.12-.55,.22-1.06,.56-1.36,.72-1-.29-1.9-.49-2.73-.83-.67-.28-1.44-.6-1.86-1.14-1.68-2.17-3.37-4.35-4.82-6.68-1.09-1.76-2.17-1.98-3.48-.5-1.1,1.23-1.96,2.67-3,3.95-1.19,1.47-2.46,2.88-3.7,4.31-.48,.55-1.12,1.05-1.38,1.69-1.67,4.06-5.18,5.94-8.91,7.42-2.14,.85-3.12,.03-3.08-2.31,.11-6.8,1.79-12.92,7.43-17.45,1.87-1.51,3.58-3.37,4.9-5.37,1.06-1.61,1.16-3.49,.3-5.62-1.2-2.98-4.44-3.43-6.01-5.83-1.04-1.58-2.38-2.95-3.57-4.43-.3-.38-.4-.98-.76-1.24-1.75-1.26-1.56-3.1-.71-4.42,.68-1.05,2.35-2.09,3.56-2.07,4.59,.09,8.31,2.36,10.96,5.98,1.75,2.38,4.18,3.3,6.92,4.66Z"/>
  </g>
</svg>